<svg xmlns="http://www.w3.org/2000/svg" width="25" height="26" viewBox="0 0 25 26" fill="none"><g clip-path="url(#clip0_1599_1402)"><path d="M24.4451 0.828408C24.0797 0.580266 23.6072 0.559186 23.2208 0.777249L0.887987 13.4816C0.506052 13.703 0.280447 14.1169 0.306763 14.5549C0.333084 14.994 0.606786 15.3807 1.0123 15.5506L8.39015 18.649V24.1114C8.39015 24.534 8.62102 24.9219 8.99174 25.125C9.16485 25.2198 9.35254 25.2679 9.50174 25.2679C9.71908 25.2679 9.93671 25.2063 10.1269 25.0845L15.4786 21.6453L20.222 23.6378C20.3656 23.6979 20.5175 23.728 20.6694 23.728C20.8657 23.728 21.0612 23.6784 21.2364 23.5791C21.5469 23.4046 21.76 23.0949 21.8115 22.7427L24.8916 1.95183C24.9986 1.51441 24.8061 1.07804 24.4451 0.828408ZM18.0779 6.36367L9.07341 16.4174L4.06966 14.3287L18.0779 6.36367ZM10.6568 21.9953V19.6197L12.8923 20.5587L10.6568 21.9953ZM19.7865 20.9317L11.2872 17.3612L22.0965 5.35349L19.7865 20.9317Z" fill="#EA77A1"></path></g><defs><clipPath id="clip0_1599_1402"><rect width="24.641" height="24.641" fill="white" transform="translate(0.304688 0.626953)"></rect></clipPath></defs></svg>