<svg xmlns="http://www.w3.org/2000/svg" width="25" height="26" viewBox="0 0 25 26" fill="none"><path d="M12.5098 6.80164C9.01166 6.80164 6.19005 9.56446 6.19005 12.9897C6.19005 16.415 9.01166 19.1778 12.5098 19.1778C16.0079 19.1778 18.8295 16.415 18.8295 12.9897C18.8295 9.56446 16.0079 6.80164 12.5098 6.80164ZM12.5098 17.0128C10.2492 17.0128 8.40114 15.2086 8.40114 12.9897C8.40114 10.7708 10.2437 8.96666 12.5098 8.96666C14.7759 8.96666 16.6185 10.7708 16.6185 12.9897C16.6185 15.2086 14.7704 17.0128 12.5098 17.0128ZM20.5621 6.54851C20.5621 7.35097 19.9021 7.99186 19.0881 7.99186C18.2685 7.99186 17.614 7.34558 17.614 6.54851C17.614 5.75144 18.274 5.10516 19.0881 5.10516C19.9021 5.10516 20.5621 5.75144 20.5621 6.54851ZM24.7478 8.0134C24.6543 6.07996 24.2033 4.36733 22.7567 2.9563C21.3156 1.54526 19.5666 1.10364 17.592 1.0067C15.5569 0.8936 9.45718 0.8936 7.4221 1.0067C5.45302 1.09825 3.70395 1.53988 2.25739 2.95091C0.810838 4.36195 0.36532 6.07458 0.266316 8.00802C0.150811 10.0007 0.150811 15.9734 0.266316 17.966C0.35982 19.8995 0.810838 21.6121 2.25739 23.0231C3.70395 24.4342 5.44752 24.8758 7.4221 24.9727C9.45718 25.0858 15.5569 25.0858 17.592 24.9727C19.5666 24.8812 21.3156 24.4396 22.7567 23.0231C24.1978 21.6121 24.6488 19.8995 24.7478 17.966C24.8633 15.9734 24.8633 10.0061 24.7478 8.0134ZM22.1187 20.1041C21.6897 21.1597 20.8591 21.973 19.7756 22.3984C18.153 23.0285 14.3029 22.8831 12.5098 22.8831C10.7167 22.8831 6.86108 23.0231 5.24401 22.3984C4.16597 21.9783 3.33544 21.1651 2.90092 20.1041C2.25739 18.5154 2.4059 14.7454 2.4059 12.9897C2.4059 11.234 2.26289 7.45868 2.90092 5.87531C3.32994 4.81972 4.16047 4.00649 5.24401 3.58103C6.86658 2.95091 10.7167 3.09632 12.5098 3.09632C14.3029 3.09632 18.1585 2.9563 19.7756 3.58103C20.8536 4.00111 21.6842 4.81434 22.1187 5.87531C22.7622 7.46407 22.6137 11.234 22.6137 12.9897C22.6137 14.7454 22.7622 18.5208 22.1187 20.1041Z" fill="#EA77A1"></path></svg>